<svg width="60" height="60" viewBox="0 0 60 60" fill="none" xmlns="http://www.w3.org/2000/svg">
<path d="M45.5706 17.418C45.0451 17.418 44.6177 17.8454 44.6177 18.371C44.6177 18.8966 45.0451 19.3242 45.5706 19.3242C46.0963 19.3242 46.5237 18.8966 46.5237 18.371C46.5237 17.8454 46.0963 17.418 45.5706 17.418Z" fill="#10A8E9"/>
<path d="M44.7043 11.3329V16.0614C44.7043 16.5388 45.0931 16.9275 45.5704 16.9275C46.0483 16.9275 46.4368 16.5388 46.4368 16.0614V11.3329C46.4368 10.8553 46.0483 10.4668 45.5704 10.4668C45.0931 10.4668 44.7043 10.8553 44.7043 11.3329Z" fill="#10A8E9"/>
<path d="M59.693 21.9487L47.5518 1.1191C47.1478 0.426099 46.4063 0 45.6041 0C44.802 0 44.0603 0.426099 43.6566 1.1191L37.9841 10.8507H1.75336C0.78471 10.8507 0 11.6361 0 12.6043V44.6914C0 45.6601 0.78471 46.445 1.75336 46.445H28.5727V57.8434C28.5727 58.5526 29 59.1923 29.6554 59.4637C29.8723 59.5537 30.0999 59.5973 30.3258 59.5973C30.7819 59.5973 31.2309 59.4189 31.5661 59.0835L44.2924 46.445H51.832C52.8005 46.445 53.5859 45.6601 53.5859 44.6914V25.3383H57.7458C58.5527 25.3383 59.2983 24.9069 59.7004 24.207C60.1023 23.5073 60.0995 22.646 59.693 21.9487ZM37.3862 20.8296L45.6041 6.73104L53.822 20.8296H37.3862Z" fill="#10A8E9"/>
</svg>
