<svg width="67" height="67" viewBox="0 0 67 67" fill="none" xmlns="http://www.w3.org/2000/svg">
<path d="M19.9787 11.1047V15.5444H62.1559V24.3329L57.2306 39.9628H18.5819L13.0322 0H0V4.43971H9.16634L14.716 44.4025H60.4866L66.5957 25.0158V11.1047H19.9787Z" fill="#979797"/>
<path d="M22.3351 48.8845C19.981 48.8872 17.724 49.8236 16.0594 51.4882C14.3947 53.1528 13.4584 55.4098 13.4557 57.7639C13.4557 60.1189 14.3912 62.3774 16.0564 64.0426C17.7216 65.7079 19.9801 66.6434 22.3351 66.6434C24.6901 66.6434 26.9486 65.7079 28.6138 64.0426C30.279 62.3774 31.2145 60.1189 31.2145 57.7639C31.2119 55.4098 30.2755 53.1528 28.6109 51.4882C26.9462 49.8235 24.6893 48.8872 22.3351 48.8845ZM22.3351 62.2037C21.457 62.2037 20.5986 61.9433 19.8685 61.4554C19.1384 60.9676 18.5694 60.2742 18.2334 59.4629C17.8973 58.6517 17.8094 57.759 17.9807 56.8978C18.152 56.0366 18.5749 55.2455 19.1958 54.6246C19.8167 54.0037 20.6077 53.5808 21.469 53.4095C22.3302 53.2382 23.2229 53.3262 24.0341 53.6622C24.8454 53.9982 25.5388 54.5673 26.0266 55.2974C26.5144 56.0275 26.7748 56.8859 26.7748 57.7639C26.7734 58.941 26.3052 60.0694 25.4729 60.9018C24.6406 61.7341 23.5122 62.2023 22.3351 62.2037Z" fill="#979797"/>
<path d="M53.413 48.8845C51.0588 48.8872 48.8019 49.8236 47.1373 51.4882C45.4726 53.1528 44.5362 55.4098 44.5336 57.7639C44.5336 60.1189 45.4691 62.3774 47.1343 64.0426C48.7995 65.7079 51.058 66.6434 53.413 66.6434C55.768 66.6434 58.0265 65.7079 59.6917 64.0426C61.3569 62.3774 62.2924 60.1189 62.2924 57.7639C62.2898 55.4098 61.3534 53.1528 59.6888 51.4882C58.0241 49.8235 55.7671 48.8872 53.413 48.8845ZM53.413 62.2037C52.5349 62.2037 51.6765 61.9433 50.9464 61.4554C50.2163 60.9676 49.6473 60.2742 49.3112 59.4629C48.9752 58.6517 48.8873 57.759 49.0586 56.8978C49.2299 56.0366 49.6527 55.2455 50.2736 54.6246C50.8945 54.0037 51.6856 53.5808 52.5468 53.4095C53.4081 53.2382 54.3007 53.3262 55.112 53.6622C55.9232 53.9982 56.6166 54.5673 57.1045 55.2974C57.5923 56.0275 57.8527 56.8859 57.8527 57.7639C57.8513 58.941 57.3831 60.0694 56.5508 60.9018C55.7185 61.7341 54.59 62.2023 53.413 62.2037Z" fill="#979797"/>
</svg>
